<svg width="1440" height="281" viewBox="0 0 1440 281" fill="none" xmlns="http://www.w3.org/2000/svg">
<path d="M224 71.2235C224 68.8933 222.273 65.5632 214.045 62.9316C212.983 62.5921 211.859 62.2804 210.682 61.9969L213.651 57.4639C214.089 56.7952 213.905 55.8963 213.239 55.456C212.574 55.0158 211.679 55.2011 211.241 55.8698L207.651 61.3515C202.94 60.4709 197.578 60.0008 192 60.0008C183.693 60.0008 175.864 61.0416 169.955 62.9314C161.727 65.5632 160 68.8933 160 71.2235C160 71.2615 160.001 71.2998 160.001 71.3382C160.032 79.5286 163.365 87.2209 169.396 93.0091C175.438 98.807 183.465 102 192 102C200.535 102 208.563 98.807 214.604 93.0091C220.635 87.2209 223.968 79.5286 223.999 71.3382C223.999 71.2998 224 71.2615 224 71.2235ZM213.17 65.6943C218.071 67.2618 221.115 69.3804 221.115 71.2235C221.115 72.8463 218.754 74.6827 214.845 76.1683C211.538 75.0324 207.495 74.1688 203.064 73.6274L208.99 64.5802C210.472 64.9072 211.872 65.279 213.17 65.6943ZM192 79.5469C185.541 79.5469 179.408 78.9026 174.321 77.7103C179.396 76.5261 185.582 75.871 192 75.871C194.037 75.871 196.051 75.9376 198.014 76.0656L195.783 79.472C194.538 79.5215 193.275 79.5469 192 79.5469ZM201.287 76.3413C204.291 76.6531 207.125 77.1145 209.679 77.7103C206.579 78.4368 203.091 78.96 199.377 79.2577L201.287 76.3413ZM170.83 65.6943C176.464 63.8925 183.982 62.9001 192 62.9001C196.939 62.9001 201.688 63.2772 205.924 63.9876L199.828 73.2953C197.291 73.083 194.663 72.9717 191.999 72.9717C183.36 72.9717 175.077 74.134 169.155 76.1683C165.246 74.6828 162.885 72.8465 162.885 71.2235C162.885 69.3804 165.929 67.2616 170.83 65.6943ZM192 99.1008C177.832 99.1008 165.996 89.3603 163.411 76.5064C164.908 77.5469 167.017 78.5757 169.955 79.5154C175.864 81.4053 183.693 82.4461 192 82.4461C200.307 82.4461 208.136 81.4053 214.045 79.5154C216.983 78.5758 219.092 77.547 220.589 76.5064C218.004 89.3605 206.168 99.1008 192 99.1008Z" fill="#FFB84D"/>
<path d="M181.448 54.6282C184.29 55.7619 188.037 56.3863 192 56.3863C195.963 56.3863 199.71 55.7619 202.552 54.6282C205.815 53.3263 207.613 51.4282 207.613 49.2836C207.613 46.5318 204.715 44.2539 199.664 43.0342C198.889 42.8471 198.11 43.3266 197.924 44.1051C197.738 44.8835 198.215 45.6661 198.99 45.8531C202.757 46.7627 204.728 48.2673 204.728 49.2834C204.728 49.9096 203.879 50.9793 201.488 51.9334C198.977 52.9352 195.607 53.4869 192 53.4869C188.393 53.4869 185.023 52.9352 182.512 51.9334C180.121 50.9793 179.272 49.9095 179.272 49.2834C179.272 48.6573 180.121 47.5875 182.512 46.6334C184.186 45.9656 186.243 45.4993 188.495 45.2615C188.282 45.7858 188.387 46.4105 188.81 46.8362C189.092 47.1193 189.461 47.2608 189.83 47.2608C190.199 47.2608 190.568 47.1193 190.85 46.8362L193.02 44.6555C193.583 44.0894 193.583 43.1715 193.02 42.6055L190.85 40.4245C190.287 39.8585 189.374 39.8585 188.81 40.4245C188.292 40.9452 188.252 41.7631 188.687 42.3315C185.979 42.5791 183.481 43.1277 181.448 43.9388C178.185 45.2407 176.388 47.1388 176.388 49.2834C176.387 51.4282 178.185 53.3263 181.448 54.6282Z" fill="#FFB84D"/>
</svg>
